<svg width="14" height="14" viewBox="0 0 14 14" fill="none" xmlns="http://www.w3.org/2000/svg">
    <path d="M6.99941 5.58638L12.2929 0.292893C12.6834 -0.0976311 13.3166 -0.0976311 13.7071 0.292893C14.0976 0.683418 14.0976 1.31658 13.7071 1.70711L8.41346 7.00075L13.7045 12.293C14.095 12.6835 14.0949 13.3167 13.7043 13.7072C13.3138 14.0977 12.6806 14.0976 12.2901 13.707L6.99925 8.41496L1.70711 13.7071C1.31658 14.0976 0.683418 14.0976 0.292893 13.7071C-0.0976311 13.3166 -0.0976311 12.6834 0.292893 12.2929L5.58519 7.00059L0.292814 1.70703C-0.0976664 1.31646 -0.0975956 0.683295 0.292972 0.292814C0.68354 -0.0976664 1.31671 -0.0975956 1.70719 0.292972L6.99941 5.58638Z" fill="#42526E"/>
</svg>
